<?xml version="1.0" encoding="UTF-8"?>
<svg id="Layer_1" data-name="Layer 1" xmlns="http://www.w3.org/2000/svg" viewBox="0 0 275.09 78.47">
  <defs>
    <style>
      .cls-1 {
        fill: none;
        stroke: #e6e7e8;
        stroke-miterlimit: 10;
        stroke-width: .75px;
      }

      .cls-2 {
        font-family: FreeSansBold, FreeSans;
        font-size: 10px;
      }

      .cls-2, .cls-3 {
        fill: #e6e7e8;
      }
    </style>
  </defs>
  <g>
    <path class="cls-3" d="m34.82,13.15c-12.12,0-19.41,9.86-19.41,26.4s6.98,25.98,18.9,25.98c9.55,0,15.61-5.44,16.54-15h15c-.92,17.15-13.35,27.94-31.94,27.94C13.04,78.47,0,63.37,0,39.34S13.15,0,34.3,0c17.46,0,29.89,9.76,31.22,26.6h-14.69c-.82-3.8-3.18-13.45-16.02-13.45Z"/>
    <path class="cls-3" d="m107.65,0c21.67,0,36.15,15.92,36.15,39.75,0,21.47-13.56,38.72-36.05,38.72s-36.05-16.43-36.05-39.23S85.88,0,107.65,0Zm-20.54,39.23c0,15.71,8.22,26.09,20.64,26.09s20.64-10.37,20.64-25.68c0-16.23-8.01-26.5-20.64-26.5s-20.64,10.37-20.64,26.09Z"/>
    <path class="cls-3" d="m201.75,14.07l-38.21,49.2h38.21v12.84h-56.28v-12.84l38.31-49.2h-38.31V1.23h56.28v12.84Z"/>
    <path class="cls-3" d="m248.18,76.11h-15.41v-27.73L207.92,1.23h17.15l15.3,33.07L254.65,1.23h17.25l-23.73,47.14v27.73Z"/>
  </g>
  <text class="cls-2" transform="translate(263.42 73.76)"><tspan x="0" y="0">gc</tspan></text>
  <line class="cls-1" x1="269.85" y1="74.81" x2="274.89" y2="74.81"/>
</svg>